<svg width="144" height="144" viewBox="0 0 144 144" fill="none" xmlns="http://www.w3.org/2000/svg">
<circle cx="72" cy="72" r="72" fill="#C5F73A"/>
<mask id="path-2-outside-1_966_5970" maskUnits="userSpaceOnUse" x="22.061" y="28" width="100" height="73" fill="black">
<rect fill="white" x="22.061" y="28" width="100" height="73"/>
<path d="M27.061 77.866C27.061 53.0872 47.1482 33 71.927 33C96.7058 33 116.793 53.0872 116.793 77.866V89.6667C116.793 95.9259 111.719 101 105.46 101H41.0928C33.3433 101 27.061 94.7178 27.061 86.9683V77.866Z"/>
</mask>
<path d="M27.061 77.866C27.061 53.0872 47.1482 33 71.927 33C96.7058 33 116.793 53.0872 116.793 77.866V89.6667C116.793 95.9259 111.719 101 105.46 101H41.0928C33.3433 101 27.061 94.7178 27.061 86.9683V77.866Z" fill="#D9D9D9"/>
<path d="M22.061 77.866C22.061 50.3258 44.3868 28 71.927 28C99.4672 28 121.793 50.3258 121.793 77.866H111.793C111.793 55.8486 93.9444 38 71.927 38C49.9096 38 32.061 55.8486 32.061 77.866H22.061ZM116.793 101H27.061H116.793ZM41.0928 101C30.5818 101 22.061 92.4792 22.061 81.9683V77.866C22.061 50.3258 44.3868 28 71.927 28V38C49.9096 38 32.061 55.8486 32.061 77.866V86.9683C32.061 94.7178 36.1047 101 41.0928 101ZM71.927 28C99.4672 28 121.793 50.3258 121.793 77.866V84.6667C121.793 93.6873 114.48 101 105.46 101C108.957 101 111.793 95.9259 111.793 89.6667V77.866C111.793 55.8486 93.9444 38 71.927 38V28Z" fill="black" mask="url(#path-2-outside-1_966_5970)"/>
<path d="M50.1953 56.8352C50.1953 54.8994 51.7646 53.3301 53.7005 53.3301H59.8602C61.7961 53.3301 63.3654 54.8994 63.3654 56.8352V62.995C63.3654 63.0938 63.3613 63.1916 63.3533 63.2883C63.3605 63.4176 63.3654 63.5475 63.3654 63.678C63.6277 67.0884 65.9096 70.524 68.9986 72.4528C69.0024 72.4545 69.0061 72.4563 69.0097 72.4582C69.4217 72.6641 69.9455 72.865 70.6275 72.982C70.9836 73.0431 71.3829 73.0813 71.8319 73.0854C72.9068 73.0951 73.8402 72.8605 74.4952 72.5568C77.6701 70.6493 80.0311 67.1506 80.2983 63.678C80.2983 63.5475 80.3031 63.4176 80.3103 63.2883C80.3023 63.1916 80.2982 63.0938 80.2982 62.995V56.8352C80.2982 54.8994 81.8675 53.3301 83.8034 53.3301H89.9632C91.899 53.3301 93.4683 54.8994 93.4683 56.8352V62.995C93.4683 64.9309 91.8991 66.5002 89.9632 66.5002H88.3464L88.3474 66.5024C88.243 66.5013 88.208 66.5007 88.1905 66.5005L88.1767 66.5003L88.1378 66.5002C83.7097 67.165 79.3574 70.8897 78.4169 75.5935L78.4169 83.0639C78.4169 84.9998 76.8477 86.5691 74.9119 86.5691H68.7519C66.816 86.5691 65.2468 84.9997 65.2468 83.0639L65.2467 75.5935C64.3062 70.8897 59.9539 67.165 55.5258 66.5002C55.5024 66.5002 55.4946 66.5002 55.4869 66.5003C55.4714 66.5004 55.4559 66.5009 55.3163 66.5024C55.3166 66.5016 55.3169 66.5009 55.3173 66.5002H53.7004C51.7645 66.5002 50.1953 64.9309 50.1953 62.995V56.8352Z" fill="black"/>
<path d="M30.5664 59.6396C30.5664 59.6396 36.8757 67.0544 36.8757 78.918C36.8757 90.7816 30.5664 98.1964 30.5664 98.1964" stroke="black" stroke-width="4"/>
<path d="M113.288 59.6396C113.288 59.6396 106.277 67.0544 106.277 78.918C106.277 90.7816 113.288 98.1964 113.288 98.1964" stroke="black" stroke-width="4"/>
</svg>
