<svg width="736" height="306" viewBox="0 0 736 306" fill="none" xmlns="http://www.w3.org/2000/svg">
<path d="M14.6445 291L109.145 81H147.545L242.345 291H201.545L120.245 101.7H135.845L54.8445 291H14.6445ZM58.1445 242.4L68.6445 211.8H182.045L192.545 242.4H58.1445ZM354.252 293.1C340.652 293.1 328.552 290.1 317.952 284.1C307.352 278.1 298.952 269.1 292.752 257.1C286.752 244.9 283.752 229.5 283.752 210.9C283.752 192.1 286.852 176.7 293.052 164.7C299.452 152.7 307.952 143.8 318.552 138C329.352 132 341.252 129 354.252 129C370.052 129 383.952 132.4 395.952 139.2C408.152 146 417.752 155.5 424.752 167.7C431.952 179.9 435.552 194.3 435.552 210.9C435.552 227.5 431.952 241.9 424.752 254.1C417.752 266.3 408.152 275.9 395.952 282.9C383.952 289.7 370.052 293.1 354.252 293.1ZM265.452 291V68.4H302.952V168L299.952 210.6L301.152 253.2V291H265.452ZM350.052 261C359.052 261 367.052 259 374.052 255C381.252 251 386.952 245.2 391.152 237.6C395.352 230 397.452 221.1 397.452 210.9C397.452 200.5 395.352 191.6 391.152 184.2C386.952 176.6 381.252 170.8 374.052 166.8C367.052 162.8 359.052 160.8 350.052 160.8C341.052 160.8 332.952 162.8 325.752 166.8C318.552 170.8 312.852 176.6 308.652 184.2C304.452 191.6 302.352 200.5 302.352 210.9C302.352 221.1 304.452 230 308.652 237.6C312.852 245.2 318.552 251 325.752 255C332.952 259 341.052 261 350.052 261ZM471.116 291V68.4H508.616V291H471.116ZM633.134 293.1C615.334 293.1 599.734 289.6 586.334 282.6C573.134 275.4 562.834 265.6 555.434 253.2C548.234 240.8 544.634 226.7 544.634 210.9C544.634 194.9 548.134 180.8 555.134 168.6C562.334 156.2 572.134 146.5 584.534 139.5C597.134 132.5 611.434 129 627.434 129C643.034 129 656.934 132.4 669.134 139.2C681.334 146 690.934 155.6 697.934 168C704.934 180.4 708.434 195 708.434 211.8C708.434 213.4 708.334 215.2 708.134 217.2C708.134 219.2 708.034 221.1 707.834 222.9H574.334V198H688.034L673.334 205.8C673.534 196.6 671.634 188.5 667.634 181.5C663.634 174.5 658.134 169 651.134 165C644.334 161 636.434 159 627.434 159C618.234 159 610.134 161 603.134 165C596.334 169 590.934 174.6 586.934 181.8C583.134 188.8 581.234 197.1 581.234 206.7V212.7C581.234 222.3 583.434 230.8 587.834 238.2C592.234 245.6 598.434 251.3 606.434 255.3C614.434 259.3 623.634 261.3 634.034 261.3C643.034 261.3 651.134 259.9 658.334 257.1C665.534 254.3 671.934 249.9 677.534 243.9L697.634 267C690.434 275.4 681.334 281.9 670.334 286.5C659.534 290.9 647.134 293.1 633.134 293.1Z" fill="white"/>
</svg>
