<svg width="42" height="42" viewBox="0 0 42 42" fill="none" xmlns="http://www.w3.org/2000/svg">
<path d="M7.28043 12.5999H32.4804C32.7032 12.5999 32.9169 12.5114 33.0744 12.3539C33.2319 12.1964 33.3204 11.9827 33.3204 11.7599C33.3204 11.5371 33.2319 11.3235 33.0744 11.166C32.9169 11.0084 32.7032 10.9199 32.4804 10.9199H7.28043C7.05765 10.9199 6.84399 11.0084 6.68646 11.166C6.52893 11.3235 6.44043 11.5371 6.44043 11.7599C6.44043 11.9827 6.52893 12.1964 6.68646 12.3539C6.84399 12.5114 7.05765 12.5999 7.28043 12.5999Z" fill="#F1F1F1"/>
<path d="M7.28043 31.0799H32.4804C32.7032 31.0799 32.9169 30.9914 33.0744 30.8339C33.2319 30.6763 33.3204 30.4627 33.3204 30.2399C33.3204 30.0171 33.2319 29.8035 33.0744 29.6459C32.9169 29.4884 32.7032 29.3999 32.4804 29.3999H7.28043C7.05765 29.3999 6.84399 29.4884 6.68646 29.6459C6.52893 29.8035 6.44043 30.0171 6.44043 30.2399C6.44043 30.4627 6.52893 30.6763 6.68646 30.8339C6.84399 30.9914 7.05765 31.0799 7.28043 31.0799Z" fill="#F1F1F1"/>
<path d="M7.28043 21.8402H32.4804C32.7032 21.8402 32.9169 21.7517 33.0744 21.5941C33.2319 21.4366 33.3204 21.2229 33.3204 21.0002C33.3204 20.7774 33.2319 20.5637 33.0744 20.4062C32.9169 20.2487 32.7032 20.1602 32.4804 20.1602H7.28043C7.05765 20.1602 6.84399 20.2487 6.68646 20.4062C6.52893 20.5637 6.44043 20.7774 6.44043 21.0002C6.44043 21.2229 6.52893 21.4366 6.68646 21.5941C6.84399 21.7517 7.05765 21.8402 7.28043 21.8402Z" fill="#F1F1F1"/>
</svg>
